<svg width="66" height="65" viewBox="0 0 66 65" fill="none" xmlns="http://www.w3.org/2000/svg">
<circle cx="33" cy="32.5" r="32" fill="#18181B" stroke="url(#paint0_linear_77_3355)"/>
<path fill-rule="evenodd" clip-rule="evenodd" d="M33.832 19.667C39.8974 19.667 44.832 24.639 44.832 30.751C44.832 38.2643 36.224 45.667 33.832 45.667C31.44 45.667 22.832 38.2643 22.832 30.751C22.832 24.639 27.7667 19.667 33.832 19.667ZM33.832 21.667C28.8694 21.667 24.832 25.743 24.832 30.751C24.832 37.123 32.3307 43.331 33.832 43.6617C35.3334 43.3297 42.832 37.1217 42.832 30.751C42.832 25.743 38.7947 21.667 33.832 21.667ZM33.8334 26.3337C36.2227 26.3337 38.1667 28.2777 38.1667 30.6683C38.1667 33.0577 36.2227 35.0003 33.8334 35.0003C31.444 35.0003 29.5 33.0577 29.5 30.6683C29.5 28.2777 31.444 26.3337 33.8334 26.3337ZM33.8334 28.3337C32.5467 28.3337 31.5 29.3803 31.5 30.6683C31.5 31.955 32.5467 33.0003 33.8334 33.0003C35.12 33.0003 36.1667 31.955 36.1667 30.6683C36.1667 29.3803 35.12 28.3337 33.8334 28.3337Z" fill="white"/>
<defs>
<linearGradient id="paint0_linear_77_3355" x1="0.5" y1="32.5" x2="65.5" y2="32.5" gradientUnits="userSpaceOnUse">
<stop stop-color="#0CBAF1"/>
<stop offset="1" stop-color="#E95CE9"/>
</linearGradient>
</defs>
</svg>
