<svg width="66" height="65" viewBox="0 0 66 65" fill="none" xmlns="http://www.w3.org/2000/svg">
<circle cx="33" cy="32.5" r="32" fill="#18181B" stroke="url(#paint0_linear_77_3349)"/>
<path fill-rule="evenodd" clip-rule="evenodd" d="M40.2127 19.667C44.6527 19.667 48.0006 23.2897 48.0006 28.0937V37.251C48.0006 39.7097 47.1313 41.931 45.5513 43.507C44.134 44.919 42.2953 45.667 40.234 45.667H27.0967C25.0393 45.667 23.202 44.9203 21.7833 43.507C20.2033 41.931 19.334 39.7097 19.334 37.251V28.0937C19.334 23.2897 22.682 19.667 27.122 19.667H40.2127ZM40.2127 21.667H27.122C23.7687 21.667 21.334 24.3697 21.334 28.0937V37.251C21.334 39.175 21.9953 40.8937 23.1953 42.0897C24.23 43.123 25.5807 43.667 27.1007 43.667H40.2127C40.2153 43.6643 40.226 43.667 40.234 43.667C41.7553 43.667 43.1047 43.123 44.1393 42.0897C45.3407 40.8937 46.0006 39.175 46.0006 37.251V28.0937C46.0006 24.3697 43.566 21.667 40.2127 21.667ZM42.314 27.8387C42.662 28.2667 42.5966 28.8961 42.1686 29.2454L36.2433 34.0614C35.494 34.6561 34.598 34.9534 33.7033 34.9534C32.8113 34.9534 31.922 34.6587 31.178 34.0694L25.198 29.2481C24.7673 28.9014 24.7007 28.2707 25.046 27.8414C25.394 27.4134 26.0233 27.3454 26.4527 27.6907L32.4273 32.5067C33.178 33.1014 34.2353 33.1014 34.9913 32.5014L40.906 27.6934C41.3353 27.3427 41.9646 27.4094 42.314 27.8387Z" fill="white"/>
<defs>
<linearGradient id="paint0_linear_77_3349" x1="0.5" y1="32.5" x2="65.5" y2="32.5" gradientUnits="userSpaceOnUse">
<stop stop-color="#0CBAF1"/>
<stop offset="1" stop-color="#E95CE9"/>
</linearGradient>
</defs>
</svg>
