<svg width="66" height="65" viewBox="0 0 66 65" fill="none" xmlns="http://www.w3.org/2000/svg">
<circle cx="33" cy="32.5" r="32" fill="#18181B" stroke="url(#paint0_linear_77_3367)"/>
<path fill-rule="evenodd" clip-rule="evenodd" d="M26.8775 19.6667C28.3669 19.6867 29.4282 20.8027 30.7709 22.2147C31.1029 22.5627 31.4615 22.9427 31.8629 23.3427C33.8082 25.2894 33.2549 26.8774 32.8082 28.1521C32.3229 29.5427 31.9029 30.7427 34.4175 33.2574C36.9322 35.7721 38.1309 35.3521 39.5202 34.8627C40.7962 34.4174 42.3802 33.8601 44.3295 35.8067C44.7255 36.2027 45.0989 36.5574 45.4455 36.8867C46.8629 38.2361 47.9829 39.3014 48.0017 40.7947C48.0162 42.0667 47.2429 43.3654 45.3335 45.2747L44.4882 44.7014L45.2042 45.3987C44.7815 45.8321 43.6575 46.9867 41.4562 47.0001H41.4162C38.0935 47.0001 33.7615 44.3547 28.5402 39.1347C23.2975 33.8934 20.6482 29.5481 20.6681 26.2187C20.6802 24.0187 21.8335 22.8921 22.2669 22.4694L22.3038 22.429L22.3935 22.3387C24.3069 20.4254 25.6215 19.6387 26.8775 19.6667ZM26.8522 21.6667H26.8415C26.2428 21.6667 25.3335 22.2667 24.0653 23.4986L23.8106 23.7487L23.8135 23.7481C23.8135 23.7481 23.7918 23.773 23.7547 23.8109L23.6655 23.9001C23.3429 24.2134 22.6749 24.8654 22.6681 26.2294C22.6575 28.1374 23.9122 31.6801 29.9535 37.7201C35.9655 43.7307 39.5029 45.0001 41.4162 45.0001H41.4442C42.8082 44.9921 43.4589 44.3241 43.7722 44.0027C43.8669 43.9054 43.9442 43.8321 43.9989 43.7881C45.3282 42.4507 46.0082 41.4574 46.0016 40.8187C45.9935 40.1681 45.1842 39.4001 44.0655 38.3347C43.7095 37.9974 43.3229 37.6281 42.9149 37.2201C41.8562 36.1654 41.3349 36.3454 40.1815 36.7507C38.5882 37.3094 36.4055 38.0747 33.0042 34.6707C29.6015 31.2694 30.3642 29.0867 30.9202 27.4921C31.3229 26.3401 31.5069 25.8161 30.4495 24.7574C30.0362 24.3441 29.6642 23.9521 29.3215 23.5921C28.2629 22.4801 27.4989 21.6761 26.8522 21.6667ZM38.3297 24.4101C41.1043 24.9487 43.247 27.0901 43.787 29.8661C43.8923 30.4101 43.539 30.9341 42.9977 31.0394C42.9323 31.0514 42.8683 31.0581 42.8043 31.0581C42.335 31.0581 41.9177 30.7274 41.8243 30.2501C41.4403 28.2767 39.919 26.7554 37.9483 26.3727C37.4057 26.2674 37.0523 25.7434 37.1577 25.2007C37.263 24.6581 37.7963 24.3034 38.3297 24.4101ZM38.2498 19.6743C43.6871 20.2783 47.9098 24.4957 48.5191 29.9317C48.5805 30.481 48.1858 30.9757 47.6378 31.037C47.6005 31.041 47.5618 31.0437 47.5245 31.0437C47.0218 31.0437 46.5898 30.6663 46.5325 30.1557C46.0271 25.6543 42.5311 22.161 38.0285 21.661C37.4805 21.5997 37.0845 21.1063 37.1458 20.557C37.2058 20.009 37.6951 19.605 38.2498 19.6743Z" fill="white"/>
<defs>
<linearGradient id="paint0_linear_77_3367" x1="0.5" y1="32.5" x2="65.5" y2="32.5" gradientUnits="userSpaceOnUse">
<stop stop-color="#0CBAF1"/>
<stop offset="1" stop-color="#E95CE9"/>
</linearGradient>
</defs>
</svg>
