<svg width="17" height="17" viewBox="0 0 17 17" fill="none" xmlns="http://www.w3.org/2000/svg">
<g id="Send">
<g id="Iconly/Bold/Send">
<g id="Send_2">
<path id="Vector" d="M14.9569 2.38799C14.6234 2.04573 14.1299 1.91822 13.6697 2.05244L2.93866 5.17302C2.45313 5.3079 2.10899 5.69512 2.01629 6.18703C1.92158 6.68767 2.25238 7.32319 2.68456 7.58894L6.03993 9.65121C6.38407 9.8626 6.82826 9.80958 7.11304 9.52236L10.9553 5.6562C11.1487 5.45487 11.4688 5.45487 11.6622 5.6562C11.8556 5.85082 11.8556 6.16623 11.6622 6.36756L7.81333 10.2344C7.52788 10.5209 7.47452 10.9672 7.68461 11.3135L9.73478 14.7025C9.97488 15.1052 10.3884 15.3333 10.8419 15.3333C10.8953 15.3333 10.9553 15.3333 11.0086 15.3266C11.5288 15.2595 11.9423 14.9038 12.0957 14.4005L15.277 3.68319C15.4171 3.22685 15.2904 2.73024 14.9569 2.38799Z" fill="white"/>
</g>
</g>
</g>
</svg>
